<svg width="24" height="25" viewBox="0 0 24 25" fill="none" xmlns="http://www.w3.org/2000/svg">
<path fill-rule="evenodd" clip-rule="evenodd" d="M24 12.5C24 5.8731 18.6268 0.5 12 0.5C5.3731 0.5 0 5.8731 0 12.5C0 18.489 4.38762 23.4537 10.1252 24.355V15.9696H7.07748V12.5H10.1252V9.85562C10.1252 6.84842 11.9173 5.18622 14.6579 5.18622C15.9707 5.18622 17.3443 5.42077 17.3443 5.42077V8.37398H15.8307C14.3406 8.37398 13.8748 9.29875 13.8748 10.2488V12.4999H17.2025L16.671 15.9695H13.8747V24.3548C19.6123 23.4553 23.9998 18.4907 23.9998 12.4999L24 12.5Z" fill="#1977F3"/>
<path fill-rule="evenodd" clip-rule="evenodd" d="M16.671 15.9695L17.2027 12.4999H13.8749V10.2488C13.8749 9.30042 14.3389 8.37399 15.8307 8.37399H17.3445V5.42077C17.3445 5.42077 15.9709 5.1862 14.6579 5.1862C11.9174 5.1862 10.1253 6.84677 10.1253 9.85562V12.5H7.07756V15.9696H10.1253V24.355C10.7361 24.451 11.3622 24.5 12.0001 24.5C12.638 24.5 13.264 24.4493 13.8749 24.355V15.9696H16.6712L16.671 15.9695Z" fill="#FEFEFE"/>
</svg>
