<svg width="24" height="25" viewBox="0 0 24 25" fill="none" xmlns="http://www.w3.org/2000/svg">
<g id="Instagram (icon &#226;&#128;&#148; Colour)">
<path id="Vector" d="M12.0105 6.38553C11.7995 6.38553 11.5907 6.3963 11.3851 6.41737C11.1794 6.43843 10.9766 6.46965 10.7772 6.51062C10.5778 6.5516 10.382 6.60235 10.1901 6.66225L9.62682 6.86907L9.09054 7.12802L8.58447 7.43595L8.11162 7.78963L7.67529 8.18598L7.27855 8.62193L6.92449 9.09425L6.61617 9.59985L6.35707 10.1355C6.27919 10.3187 6.2099 10.5066 6.14994 10.6983C6.08997 10.8901 6.03922 11.0858 5.99815 11.285C5.9571 11.4841 5.92589 11.6867 5.90474 11.8922C5.8836 12.0977 5.87299 12.3063 5.87299 12.5171C5.87299 12.7279 5.88375 12.9364 5.90474 13.1419C5.92562 13.3458 5.95679 13.5485 5.99815 13.7493C6.03922 13.9492 6.08997 14.1441 6.14994 14.3359C6.2099 14.5277 6.2791 14.7154 6.35707 14.8987L6.61617 15.4344L6.92449 15.9399L7.27855 16.4123L7.67529 16.8483L8.11162 17.2447L8.58447 17.5983L9.09054 17.9062L9.62682 18.1652L10.1901 18.372L10.7772 18.5237C10.9781 18.565 11.181 18.5962 11.3851 18.617C11.5929 18.6382 11.8017 18.6488 12.0105 18.6487C12.2216 18.6487 12.4303 18.638 12.6359 18.617C12.84 18.5962 13.0429 18.565 13.2438 18.5237L13.831 18.372L14.3943 18.1652L14.9305 17.9062L15.4366 17.5983L15.9095 17.2447L16.3459 16.8483L16.7427 16.4123L17.0967 15.9399L17.405 15.4344L17.6642 14.8987L17.8712 14.3359C17.9312 14.1441 17.982 13.9484 18.023 13.7493L18.1163 13.1419C18.1375 12.9363 18.1482 12.7278 18.1482 12.517C18.1482 12.3062 18.1375 12.0977 18.1163 11.8921C18.0955 11.6883 18.0643 11.4856 18.023 11.2849C17.982 11.085 17.9312 10.8901 17.8712 10.6982L17.6642 10.1354L17.405 9.59977L17.0967 9.09417L16.7427 8.62185L16.3459 8.1859L15.9095 7.78955L15.4366 7.43588L14.9305 7.12795L14.3943 6.869L13.831 6.66217L13.2438 6.51055L12.6359 6.41728C12.4282 6.39607 12.2194 6.38552 12.0105 6.38553ZM12.0105 8.50192C12.1501 8.50192 12.2878 8.50883 12.4234 8.52252L12.8232 8.58303L13.2094 8.68143L13.5793 8.81577L13.9309 8.98415L14.2615 9.18443L14.5706 9.41487L14.8555 9.67335L15.1142 9.95798L15.3449 10.2668L15.5454 10.5978L15.7138 10.9492C15.7644 11.0695 15.8093 11.1927 15.8483 11.3187C15.8874 11.4447 15.9202 11.5735 15.9468 11.7047C15.9733 11.8359 15.9929 11.9693 16.0073 12.1049L16.0279 12.5175C16.0279 12.6569 16.021 12.7945 16.0073 12.9301C15.9936 13.0657 15.9734 13.1992 15.9468 13.3303C15.9201 13.4614 15.8872 13.5902 15.8483 13.7163L15.7138 14.0858L15.5454 14.4372L15.3449 14.7682L15.1142 15.077L14.8555 15.3616L14.5706 15.6201L14.2615 15.8506L13.9309 16.0509L13.5793 16.2192L13.2094 16.3536L12.8232 16.452L12.4234 16.5124C12.2862 16.5262 12.1484 16.533 12.0105 16.533C11.8725 16.533 11.7347 16.5262 11.5974 16.5124L11.1976 16.452C11.0664 16.4254 10.9375 16.3925 10.8113 16.3536L10.4415 16.2192L10.0899 16.0509L9.7593 15.8506L9.45022 15.6201L9.16527 15.3616L8.90655 15.077L8.67589 14.7682L8.47537 14.4372L8.30699 14.0858L8.17244 13.7163L8.07402 13.3303L8.01352 12.9301C7.99975 12.793 7.99287 12.6553 7.9929 12.5175C7.99287 12.3797 7.99975 12.242 8.01352 12.1049C8.02712 11.9693 8.04734 11.8358 8.07402 11.7047C8.10044 11.5745 8.1333 11.4457 8.17252 11.3188L8.30707 10.9493L8.47545 10.5979L8.67597 10.2668L8.90662 9.95807L9.16535 9.67343L9.45029 9.41493L9.75937 9.18452L10.09 8.98422L10.4416 8.81583C10.5626 8.76502 10.6861 8.72018 10.8115 8.68152L11.1978 8.5831C11.329 8.5565 11.4627 8.5362 11.5976 8.5226C11.7348 8.50885 11.8726 8.5019 12.0105 8.50192Z" fill="url(#paint0_radial_267_2260)"/>
<path id="Vector_2" d="M18.397 4.64128C18.3483 4.64128 18.2997 4.64375 18.2512 4.64867C18.2027 4.65357 18.1545 4.6609 18.1067 4.67065C18.059 4.6804 18.0117 4.69253 17.9652 4.70702C17.9185 4.72152 17.8728 4.73835 17.8278 4.75745C17.783 4.77659 17.7392 4.79797 17.6963 4.8215C17.6535 4.845 17.612 4.87063 17.5718 4.89832C17.5315 4.92602 17.4927 4.95574 17.4555 4.98735C17.4182 5.01894 17.3825 5.05237 17.3485 5.08753C17.3147 5.12272 17.2825 5.1596 17.2522 5.19802C17.2218 5.23645 17.1935 5.27637 17.1672 5.31765C17.1408 5.3589 17.1167 5.40145 17.0945 5.44513C17.0725 5.48885 17.0525 5.53365 17.0348 5.57938C17.0172 5.62508 17.0018 5.67167 16.9887 5.71892C16.9757 5.76618 16.965 5.81407 16.9568 5.8624C16.9485 5.91072 16.9427 5.95942 16.9392 6.00833C16.9367 6.04297 16.9355 6.0777 16.9355 6.11243C16.9355 6.1615 16.9378 6.21053 16.9428 6.25937C16.9477 6.30817 16.955 6.35669 16.9647 6.40475C16.9743 6.45282 16.9863 6.50037 17.0007 6.54722C17.0152 6.59408 17.0318 6.6402 17.0508 6.68539C17.0698 6.73059 17.091 6.7748 17.1145 6.81787C17.1378 6.86092 17.1633 6.90277 17.1908 6.94327C17.2183 6.98373 17.2478 7.02278 17.2792 7.06028C17.3107 7.09782 17.3438 7.13375 17.3788 7.16793C17.4138 7.2021 17.4503 7.23449 17.4887 7.26497C17.5268 7.29547 17.5665 7.32402 17.6075 7.35053C17.6485 7.37705 17.6908 7.40148 17.7342 7.42374C17.7777 7.446 17.8222 7.46607 17.8675 7.48385C17.913 7.50163 17.9592 7.5171 18.0062 7.53022C18.0532 7.54332 18.1007 7.55405 18.1487 7.56235C18.1967 7.5707 18.2452 7.57664 18.2937 7.58012C18.3282 7.58259 18.3627 7.5838 18.3972 7.58382C18.4458 7.58382 18.4947 7.58138 18.5432 7.5765C18.5915 7.5716 18.6398 7.56427 18.6875 7.55452C18.7353 7.54478 18.7825 7.53263 18.8292 7.51815C18.8757 7.50365 18.9215 7.48682 18.9663 7.46772C19.0112 7.4486 19.0552 7.42725 19.0978 7.40374C19.1407 7.38022 19.1822 7.35455 19.2225 7.32685C19.2627 7.29917 19.3015 7.26948 19.3388 7.2379C19.376 7.20628 19.4117 7.17284 19.4457 7.13764C19.4797 7.10245 19.5118 7.06557 19.542 7.02715C19.5723 6.98872 19.6007 6.9488 19.627 6.90752C19.6533 6.86625 19.6777 6.82367 19.6997 6.77997C19.7218 6.73623 19.7418 6.69143 19.7595 6.64572C19.7772 6.6 19.7925 6.55343 19.8055 6.50617C19.8185 6.45892 19.8292 6.41104 19.8375 6.3627C19.8458 6.31439 19.8517 6.26567 19.855 6.21677C19.8575 6.18212 19.8588 6.1474 19.8588 6.11267C19.8588 6.06362 19.8563 6.0146 19.8515 5.9658C19.8467 5.917 19.8393 5.86849 19.8297 5.82042C19.82 5.77235 19.8078 5.7248 19.7935 5.67795C19.779 5.63108 19.7623 5.58497 19.7433 5.53979C19.7243 5.49459 19.7032 5.45037 19.6798 5.4073C19.6565 5.36425 19.631 5.3224 19.6035 5.2819C19.5758 5.2414 19.5463 5.20233 19.515 5.1648C19.4835 5.12728 19.4503 5.09135 19.4155 5.05717C19.3805 5.023 19.3438 4.99062 19.3057 4.96013C19.2675 4.92965 19.2278 4.90112 19.1868 4.87464C19.1458 4.84812 19.1035 4.82368 19.06 4.80143C19.0165 4.77917 18.972 4.7591 18.9267 4.74132C18.8813 4.72354 18.835 4.70807 18.788 4.69495C18.7412 4.68182 18.6935 4.67107 18.6455 4.66273C18.5975 4.65442 18.5492 4.6485 18.5005 4.64505C18.466 4.64258 18.4315 4.64128 18.397 4.64128Z" fill="url(#paint1_radial_267_2260)"/>
<path id="Vector_3" d="M10.8467 0.521697C10.1791 0.52062 9.58343 0.523388 9.04829 0.530923L7.61359 0.569366C7.18856 0.587819 6.81304 0.611882 6.47598 0.643022C6.30744 0.658553 6.14844 0.675929 5.99774 0.695074C5.85433 0.713149 5.71133 0.734195 5.56879 0.758199C5.43308 0.781265 5.30429 0.806175 5.18081 0.833239C5.05734 0.860304 4.93939 0.88952 4.82559 0.92089C4.71436 0.951565 4.60398 0.985307 4.49461 1.02207C4.38743 1.05821 4.28286 1.0965 4.17959 1.1374C3.97308 1.21921 3.77164 1.31101 3.56419 1.41389C3.40458 1.49308 3.25711 1.57327 3.11703 1.65816C2.97694 1.74304 2.84423 1.83269 2.71429 1.93034C2.58048 2.03138 2.45149 2.13868 2.32779 2.25188C2.19846 2.36967 2.06638 2.49922 1.92913 2.644C1.75668 2.82492 1.60682 2.9936 1.47381 3.15913C1.4073 3.24187 1.34502 3.32368 1.28636 3.40595C1.22834 3.48702 1.17288 3.5699 1.12005 3.65443C1.06777 3.73825 1.01825 3.8236 0.970891 3.9114C0.922791 4.00072 0.877332 4.09143 0.834572 4.18342C0.747075 4.37133 0.665422 4.5737 0.583922 4.7996C0.52346 4.96658 0.469318 5.13582 0.421613 5.30688C0.372945 5.48173 0.329658 5.66465 0.29106 5.86247C0.252463 6.0603 0.218787 6.27305 0.189185 6.50832C0.157287 6.76622 0.131804 7.02487 0.11276 7.28403C0.0912321 7.56897 0.0733944 7.88252 0.0587859 8.2315L0.0241871 9.39188L0.0055804 10.8064L0.000198364 12.5161L0.0159601 15.0024L0.0651676 16.8861L0.103073 17.6218L0.150435 18.2317C0.165617 18.396 0.184613 18.5598 0.207408 18.7233C0.228167 18.8685 0.250465 18.9955 0.274453 19.1055C0.323128 19.329 0.380685 19.5505 0.446987 19.7695C0.51047 19.9792 0.583068 20.1858 0.664575 20.3892C0.744692 20.5883 0.832342 20.7803 0.927682 20.9652C1.02302 21.15 1.12605 21.3277 1.23677 21.4983C1.34748 21.6688 1.46589 21.8325 1.59229 21.9892C1.71854 22.1458 1.85284 22.2957 1.99464 22.4385C2.13664 22.5815 2.28643 22.7175 2.44428 22.8468C2.60398 22.9777 2.77001 23.1007 2.94173 23.2152C3.10111 23.3217 3.25881 23.4193 3.41766 23.5088C3.57649 23.5985 3.73673 23.6797 3.90143 23.7537C4.06611 23.8275 4.23496 23.894 4.41134 23.9538C4.58771 24.0137 4.77148 24.0668 4.96569 24.114C5.15991 24.1613 5.36549 24.2027 5.58309 24.2388C5.80068 24.275 6.03326 24.306 6.28176 24.3327C6.53026 24.3593 6.79536 24.3813 7.08023 24.3998C7.36509 24.4183 7.66956 24.433 7.99671 24.4448C8.50209 24.4632 9.26711 24.4738 10.1493 24.478L13.0053 24.4722L15.7097 24.4343L16.738 24.4053L17.4078 24.371C17.5517 24.3592 17.6923 24.3453 17.8282 24.3292C17.964 24.313 18.0978 24.2945 18.2283 24.2733C18.3587 24.2523 18.4862 24.2288 18.6113 24.2027C18.7352 24.1768 18.8583 24.148 18.9807 24.1163C19.1018 24.0855 19.2213 24.0505 19.3397 24.0133C19.4578 23.9763 19.575 23.9362 19.6913 23.893C19.8083 23.8497 19.9242 23.8035 20.039 23.7547C20.1545 23.7053 20.2698 23.6528 20.3857 23.597C20.5635 23.5113 20.7067 23.4398 20.8323 23.3702C20.9507 23.3053 21.0645 23.2328 21.1733 23.153C21.2807 23.074 21.3873 22.984 21.5103 22.8707C21.6333 22.7573 21.7728 22.6208 21.9453 22.4482C22.0972 22.2965 22.225 22.1647 22.3353 22.0448C22.4457 21.925 22.5387 21.8172 22.6202 21.7132C22.6978 21.6145 22.7702 21.5118 22.837 21.4055C22.9022 21.3017 22.9622 21.1938 23.0232 21.0743C23.1152 20.8945 23.197 20.7278 23.2702 20.567C23.3413 20.4122 23.4063 20.2543 23.465 20.0943C23.5228 19.9355 23.573 19.774 23.6152 19.6103C23.6585 19.442 23.6958 19.2642 23.7282 19.0692C23.7603 18.8742 23.7877 18.662 23.8113 18.425C23.835 18.1882 23.8552 17.9262 23.8728 17.632L23.9198 16.6442L23.96 15.4158L23.9888 14.0472L23.9998 12.6162L23.9742 9.8056L23.9398 8.54673L23.893 7.46587L23.8345 6.62318C23.8133 6.38868 23.7903 6.204 23.7662 6.07913C23.7392 5.94117 23.7092 5.80385 23.676 5.66725C23.6437 5.53435 23.6082 5.40225 23.5695 5.27107C23.5318 5.14325 23.4908 5.01642 23.4467 4.8907C23.403 4.76653 23.3567 4.64497 23.3082 4.52603C23.2598 4.40708 23.2073 4.29092 23.1528 4.1772C23.0982 4.06348 23.041 3.95253 22.981 3.84412C22.9208 3.73572 22.8583 3.63 22.7928 3.52688C22.7275 3.42378 22.6593 3.32328 22.5883 3.22548C22.5178 3.128 22.4442 3.03275 22.3677 2.93985C22.2915 2.84748 22.2125 2.75753 22.1307 2.67013C22.049 2.58287 21.9645 2.4982 21.8775 2.41627C21.7903 2.3343 21.7007 2.25495 21.6082 2.17822C21.5152 2.10123 21.42 2.02715 21.3223 1.95609C21.2238 1.8843 21.1232 1.81554 21.0203 1.74988C20.9162 1.6833 20.8102 1.61981 20.7022 1.55951C20.5925 1.4982 20.4808 1.44005 20.3678 1.38513C20.18 1.29387 20.0063 1.21291 19.836 1.1411C19.6683 1.06983 19.4975 1.00653 19.324 0.951415C19.1495 0.89644 18.9678 0.84931 18.768 0.808637C18.568 0.767964 18.35 0.734057 18.1033 0.705224C17.8567 0.676392 17.5812 0.653096 17.266 0.63372C16.951 0.614345 16.5966 0.59912 16.1919 0.586818L14.8167 0.556064L13.0762 0.535536L10.8474 0.521849L10.8467 0.521697ZM12.0042 2.63623L15.2183 2.65453L16.4308 2.6779C16.7647 2.68728 17.0195 2.69828 17.1688 2.71097C17.3635 2.72735 17.5487 2.74787 17.726 2.77248C17.896 2.79597 18.0653 2.82517 18.2333 2.86005C18.3948 2.89388 18.5488 2.93232 18.6963 2.97568C18.8437 3.01905 18.9845 3.06765 19.1195 3.12138C19.2547 3.17513 19.3838 3.23425 19.5082 3.299C19.6315 3.36325 19.7513 3.43395 19.8672 3.51082C19.9825 3.58732 20.0937 3.66975 20.2017 3.75855C20.3095 3.84735 20.4142 3.94253 20.5163 4.04433C20.6243 4.15175 20.7238 4.26115 20.8155 4.37402C20.9068 4.4862 20.9915 4.60377 21.0687 4.72608C21.1468 4.85015 21.2172 4.97893 21.2795 5.11167C21.3432 5.247 21.4003 5.39 21.4517 5.542C21.5032 5.69402 21.5488 5.85555 21.5893 6.02817C21.6318 6.21117 21.6673 6.3957 21.696 6.58137C21.7267 6.7782 21.753 6.9881 21.7753 7.21283C21.7975 7.43757 21.816 7.67723 21.8312 7.93365C21.8433 8.13932 21.854 8.41073 21.863 8.73127L21.8855 9.82422L21.9027 12.5014L21.8832 15.176L21.8597 16.2658L21.8272 17.0585C21.8048 17.4297 21.7812 17.7417 21.7528 18.0132C21.7387 18.149 21.7232 18.2747 21.7062 18.3925C21.6902 18.5038 21.6712 18.6147 21.6493 18.725C21.6293 18.8257 21.6062 18.9257 21.5797 19.025C21.5545 19.1195 21.526 19.2133 21.4945 19.3062C21.4627 19.3993 21.4282 19.4915 21.3908 19.5825C21.3513 19.6788 21.3097 19.774 21.2658 19.8683C21.2268 19.9525 21.1858 20.0345 21.1425 20.1142C21.0997 20.1932 21.054 20.2705 21.006 20.3463C20.9583 20.4215 20.9083 20.4945 20.856 20.5652C20.804 20.6355 20.7495 20.704 20.6925 20.7705C20.6358 20.8368 20.5767 20.9008 20.5152 20.9628C20.4537 21.0247 20.3898 21.0843 20.3237 21.142C20.2577 21.1997 20.189 21.2552 20.118 21.3085C20.0472 21.3618 19.9737 21.413 19.8978 21.462C19.8218 21.5112 19.7437 21.5582 19.6628 21.6032C19.582 21.648 19.4987 21.6908 19.413 21.7317C19.3257 21.7732 19.2373 21.812 19.1477 21.8482C19.0552 21.8855 18.9617 21.9202 18.8672 21.9523C18.6748 22.0178 18.4722 22.0753 18.2587 22.1248C18.0363 22.1763 17.8118 22.2183 17.5858 22.2508C17.4988 22.2635 17.2992 22.2755 17.0132 22.2865L15.9233 22.3168L12.8332 22.357L9.59888 22.362L8.32871 22.3485L7.50394 22.3228L6.89578 22.28C6.70694 22.2642 6.53133 22.2465 6.3668 22.2263C6.20226 22.2063 6.04903 22.184 5.90486 22.1587C5.76824 22.1352 5.63246 22.1068 5.49774 22.0742C5.37491 22.0443 5.25333 22.0095 5.13331 21.9698C5.01759 21.9313 4.90694 21.889 4.79931 21.8425C4.69166 21.796 4.58709 21.745 4.48353 21.6893C4.37996 21.6337 4.27748 21.5733 4.17383 21.5073C4.09564 21.4577 4.02006 21.4073 3.94733 21.3542C3.87459 21.3008 3.80431 21.2477 3.73666 21.192C3.66899 21.1363 3.60403 21.079 3.54136 21.02C3.47911 20.9612 3.41901 20.9002 3.36114 20.8372C3.30348 20.7742 3.24834 20.7095 3.19544 20.6425C3.14234 20.5752 3.09174 20.5058 3.04376 20.4348C2.99504 20.3627 2.94896 20.2888 2.90559 20.2135C2.86176 20.1373 2.82009 20.0587 2.78049 19.9773C2.74023 19.8947 2.70266 19.8107 2.66786 19.7255C2.63249 19.6387 2.59896 19.5492 2.56744 19.4568C2.50439 19.2718 2.44904 19.075 2.40091 18.8652C2.35278 18.6553 2.31171 18.4323 2.27696 18.1947C2.24221 17.9572 2.21423 17.7052 2.19193 17.4375C2.17548 17.2403 2.16241 16.9331 2.15241 16.5456L2.13149 15.1674L2.13918 11.6541L2.19969 8.29693L2.24583 7.11412L2.27196 6.72313C2.28104 6.61873 2.29043 6.54138 2.30003 6.49493C2.33171 6.34217 2.36361 6.2 2.39659 6.06692C2.42741 5.94135 2.46169 5.81668 2.49939 5.69302C2.53523 5.5763 2.57298 5.46697 2.61334 5.3634C2.65226 5.26307 2.69564 5.16453 2.74336 5.06808C2.78994 4.97428 2.84001 4.88447 2.89436 4.79705C2.94873 4.70963 3.00739 4.62483 3.07136 4.54048C3.13533 4.45613 3.20421 4.37287 3.27918 4.28845C3.35414 4.20403 3.43511 4.11877 3.52291 4.03088C3.62524 3.92797 3.73179 3.82933 3.84229 3.73525C3.94664 3.64648 4.05544 3.5631 4.16829 3.48545C4.27924 3.40855 4.39304 3.34013 4.51153 3.27723C4.63001 3.21435 4.75318 3.15752 4.88273 3.1064C5.01228 3.05527 5.14838 3.00952 5.29253 2.968C5.44399 2.92552 5.59713 2.88927 5.75154 2.85935C5.91393 2.82753 6.08639 2.79977 6.27053 2.77555C6.45468 2.75133 6.65058 2.73042 6.86003 2.71227C7.00611 2.69967 7.25783 2.68843 7.58929 2.67898L8.79564 2.65515L12.0047 2.63553L12.0042 2.63623Z" fill="url(#paint2_radial_267_2260)"/>
</g>
<defs>
<radialGradient id="paint0_radial_267_2260" cx="0" cy="0" r="1" gradientUnits="userSpaceOnUse" gradientTransform="translate(3.82372 26.2243) rotate(-9.53101) scale(50.723 30.7885)">
<stop stop-color="#FED576"/>
<stop offset="0.263" stop-color="#F47133"/>
<stop offset="0.609" stop-color="#BC3081"/>
<stop offset="1" stop-color="#4C63D2"/>
</radialGradient>
<radialGradient id="paint1_radial_267_2260" cx="0" cy="0" r="1" gradientUnits="userSpaceOnUse" gradientTransform="translate(3.82377 26.2243) rotate(-9.53102) scale(50.723 30.7885)">
<stop stop-color="#FED576"/>
<stop offset="0.263" stop-color="#F47133"/>
<stop offset="0.609" stop-color="#BC3081"/>
<stop offset="1" stop-color="#4C63D2"/>
</radialGradient>
<radialGradient id="paint2_radial_267_2260" cx="0" cy="0" r="1" gradientUnits="userSpaceOnUse" gradientTransform="translate(3.82376 26.2243) rotate(-9.53101) scale(50.723 30.7885)">
<stop stop-color="#FED576"/>
<stop offset="0.263" stop-color="#F47133"/>
<stop offset="0.609" stop-color="#BC3081"/>
<stop offset="1" stop-color="#4C63D2"/>
</radialGradient>
</defs>
</svg>
