<svg width="24" height="25" viewBox="0 0 24 25" fill="none" xmlns="http://www.w3.org/2000/svg">
<path d="M24 0.5H0V24.5H24V0.5Z" fill="black"/>
<path d="M17.7545 17.9736L13.2512 11.4313L12.7421 10.6914L9.52082 6.01148L9.25381 5.62364H5.29549L6.26089 7.02654L10.544 13.2498L11.0531 13.9889L14.4946 18.9891L14.7616 19.3766H18.7199L17.7545 17.9737V17.9736ZM15.2321 18.481L11.6567 13.2863L11.1476 12.5468L6.99888 6.51901H8.7835L12.1387 11.3939L12.6478 12.1333L17.0168 18.481H15.2322H15.2321Z" fill="white"/>
<path d="M11.1476 12.5468L11.6567 13.2863L11.0532 13.9888L6.42211 19.3764H5.28011L10.544 13.2497L11.1476 12.5468Z" fill="white"/>
<path d="M18.2434 5.62364L13.2513 11.4313L12.6477 12.1333L12.1386 11.3939L12.7422 10.6914L16.1237 6.75547L17.1014 5.62364H18.2434Z" fill="white"/>
</svg>
